REM DIRINDEX 1\2,1\3,1\4,1\5
REM DIRNAME "folder01","folder02","folder03","folder04","folder05"
TITLE ""
FILE "DISC1Track04.mp3" MP3
  TRACK 01 AUDIO
    TITLE "2:cjc158_0122"
    INDEX 01 00:00:00
  TRACK 02 AUDIO
    TITLE "0:"
    INDEX 01 00:02:11
  TRACK 03 AUDIO
    TITLE "3:cjc158_0123"
    INDEX 01 00:02:41
  TRACK 04 AUDIO
    TITLE "4:cjc158_0124"
    INDEX 01 00:04:24
  TRACK 05 AUDIO
    TITLE "5:cjc158_0125"
    INDEX 01 00:06:09
  TRACK 06 AUDIO
    TITLE "0:"
    INDEX 01 00:07:59
  TRACK 07 AUDIO
    TITLE "3:cjc158_0126"
    INDEX 01 00:08:16
  TRACK 08 AUDIO
    TITLE "4:cjc158_0127"
    INDEX 01 00:09:56
  TRACK 09 AUDIO
    TITLE "5:cjc158_0128"
    INDEX 01 00:11:49
  TRACK 10 AUDIO
    TITLE "0:"
    INDEX 01 00:13:29
  TRACK 11 AUDIO
    TITLE "3:cjc158_0129"
    INDEX 01 00:13:60
  TRACK 12 AUDIO
    TITLE "4:cjc158_0130"
    INDEX 01 00:15:37
  TRACK 13 AUDIO
    TITLE "5:cjc158_0131"
    INDEX 01 00:17:26
  TRACK 14 AUDIO
    TITLE "0:"
    INDEX 01 00:19:08
  TRACK 15 AUDIO
    TITLE "3:cjc158_0132"
    INDEX 01 00:19:41
  TRACK 16 AUDIO
    TITLE "4:cjc158_0133"
    INDEX 01 00:21:20
  TRACK 17 AUDIO
    TITLE "5:cjc158_0134"
    INDEX 01 00:23:47
  TRACK 18 AUDIO
    TITLE "0:"
    INDEX 01 00:25:67
  TRACK 19 AUDIO
    TITLE "3:cjc158_0135"
    INDEX 01 00:26:23
  TRACK 20 AUDIO
    TITLE "4:cjc158_0136"
    INDEX 01 00:28:14
  TRACK 21 AUDIO
    TITLE "5:cjc158_0137"
    INDEX 01 00:30:13
  TRACK 22 AUDIO
    TITLE "0:"
    INDEX 01 00:31:68
  TRACK 23 AUDIO
    TITLE "3:cjc158_0138"
    INDEX 01 00:32:32
  TRACK 24 AUDIO
    TITLE "4:cjc158_0139"
    INDEX 01 00:33:74
  TRACK 25 AUDIO
    TITLE "5:cjc158_0140"
    INDEX 01 00:36:18
  TRACK 26 AUDIO
    TITLE "0:"
    INDEX 01 00:38:19
  TRACK 27 AUDIO
    TITLE "3:cjc158_0141"
    INDEX 01 00:38:52
  TRACK 28 AUDIO
    TITLE "4:cjc158_0142"
    INDEX 01 00:40:43
  TRACK 29 AUDIO
    TITLE "5:cjc158_0143"
    INDEX 01 00:42:44
  TRACK 30 AUDIO
    TITLE "0:"
    INDEX 01 00:44:25
  TRACK 31 AUDIO
    TITLE "3:cjc158_0144"
    INDEX 01 00:44:57
  TRACK 32 AUDIO
    TITLE "4:cjc158_0145"
    INDEX 01 00:47:39
  TRACK 33 AUDIO
    TITLE "5:cjc158_0146"
    INDEX 01 00:50:20
  TRACK 34 AUDIO
    TITLE "0:"
    INDEX 01 00:52:74
  TRACK 35 AUDIO
    TITLE "3:cjc158_0147"
    INDEX 01 00:53:18
  TRACK 36 AUDIO
    TITLE "4:cjc158_0148"
    INDEX 01 00:56:03
  TRACK 37 AUDIO
    TITLE "5:cjc158_0149"
    INDEX 01 00:58:53
  TRACK 38 AUDIO
    TITLE "0:"
    INDEX 01 01:01:18
  TRACK 39 AUDIO
    TITLE "3:cjc158_0150"
    INDEX 01 01:01:49
  TRACK 40 AUDIO
    TITLE "4:cjc158_0151"
    INDEX 01 01:03:66
  TRACK 41 AUDIO
    TITLE "5:cjc158_0152"
    INDEX 01 01:06:15
  TRACK 42 AUDIO
    TITLE "0:"
    INDEX 01 01:08:30
  TRACK 43 AUDIO
    TITLE "3:cjc158_0153"
    INDEX 01 01:08:61
  TRACK 44 AUDIO
    TITLE "4:cjc158_0154"
    INDEX 01 01:10:13
  TRACK 45 AUDIO
    TITLE "5:cjc158_0155"
    INDEX 01 01:11:61
  TRACK 46 AUDIO
    TITLE "0:"
    INDEX 01 01:13:27
  TRACK 47 AUDIO
    TITLE "3:cjc158_0156"
    INDEX 01 01:13:58
  TRACK 48 AUDIO
    TITLE "4:cjc158_0157"
    INDEX 01 01:17:34
  TRACK 49 AUDIO
    TITLE "5:cjc158_0158"
    INDEX 01 01:20:35
  TRACK 50 AUDIO
    TITLE "0:"
    INDEX 01 01:23:19
  TRACK 51 AUDIO
    TITLE "3:cjc158_0159"
    INDEX 01 01:23:49
  TRACK 52 AUDIO
    TITLE "4:cjc158_0160"
    INDEX 01 01:25:52
  TRACK 53 AUDIO
    TITLE "5:cjc158_0161"
    INDEX 01 01:28:11
  TRACK 54 AUDIO
    TITLE "0:"
    INDEX 01 01:30:31
  TRACK 55 AUDIO
    TITLE "3:cjc158_0162"
    INDEX 01 01:30:61
  TRACK 56 AUDIO
    TITLE "4:cjc158_0163"
    INDEX 01 01:33:30
  TRACK 57 AUDIO
    TITLE "5:cjc158_0164"
    INDEX 01 01:36:02
  TRACK 58 AUDIO
    TITLE "0:"
    INDEX 01 01:38:33
  TRACK 59 AUDIO
    TITLE "3:cjc158_0165"
    INDEX 01 01:38:64
  TRACK 60 AUDIO
    TITLE "4:cjc158_0166"
    INDEX 01 01:42:42
  TRACK 61 AUDIO
    TITLE "5:cjc158_0167"
    INDEX 01 01:45:45
  TRACK 62 AUDIO
    TITLE "0:"
    INDEX 01 01:48:29
